<?xml version="1.0" encoding="UTF-8"?>
<svg xmlns="http://www.w3.org/2000/svg" width="32px" height="32px" viewBox="0 0 32 32" version="1.1">
    <defs>
        <style>
            .cls-1{
            fill:#FF6BB8;
            }
            .cls-2{
            fill:#FF00B5;
            }
            .cls-3{
            fill:#FFA6CE;
            }
        </style>
    </defs>
    <g id="surface1">
        <path class="cls-1" style="stroke:none;fill-rule:nonzero;fill-opacity:1;"
              d="M 3.828125 0.148438 C 3.742188 0.230469 3.476562 0.507812 3.238281 0.765625 C 2.996094 1.023438 2.597656 1.449219 2.347656 1.714844 C 2.097656 1.980469 1.796875 2.300781 1.683594 2.417969 C 1.335938 2.789062 0.433594 3.75 0.210938 3.980469 L 0 4.203125 L 0 6.464844 L 0.0820312 6.617188 C 0.128906 6.695312 0.179688 6.789062 0.203125 6.8125 C 0.242188 6.867188 0.519531 7.308594 0.59375 7.445312 C 0.664062 7.574219 1.089844 8.277344 1.203125 8.453125 C 1.257812 8.539062 1.371094 8.726562 1.453125 8.871094 C 1.535156 9.019531 1.660156 9.226562 1.730469 9.339844 C 1.804688 9.453125 1.898438 9.625 1.949219 9.71875 C 2 9.8125 2.113281 10.007812 2.203125 10.15625 C 2.492188 10.632812 2.484375 10.585938 2.375 10.867188 C 2.320312 11 2.257812 11.152344 2.234375 11.207031 C 2.085938 11.527344 2 11.726562 2 11.753906 C 2 11.769531 1.972656 11.839844 1.941406 11.914062 C 1.90625 11.988281 1.84375 12.136719 1.796875 12.25 C 1.75 12.363281 1.695312 12.492188 1.671875 12.546875 C 1.648438 12.597656 1.582031 12.765625 1.523438 12.921875 C 1.460938 13.074219 1.332031 13.394531 1.234375 13.625 C 0.976562 14.242188 0.90625 14.429688 0.90625 14.503906 C 0.90625 14.578125 1.058594 14.796875 1.296875 15.070312 C 1.382812 15.167969 1.570312 15.398438 1.71875 15.582031 C 1.972656 15.898438 2.300781 16.296875 2.703125 16.78125 C 2.804688 16.902344 2.960938 17.09375 3.039062 17.195312 C 3.121094 17.304688 3.234375 17.433594 3.285156 17.488281 C 3.335938 17.542969 3.429688 17.65625 3.492188 17.742188 C 3.601562 17.890625 3.8125 18.144531 4.160156 18.546875 C 4.246094 18.648438 4.402344 18.839844 4.507812 18.96875 C 5.023438 19.625 5.125 19.746094 5.3125 19.972656 C 5.664062 20.390625 6.585938 21.53125 6.882812 21.914062 C 6.96875 22.023438 7.101562 22.1875 7.1875 22.28125 C 7.355469 22.46875 7.773438 22.992188 8.007812 23.289062 C 8.085938 23.398438 8.230469 23.570312 8.328125 23.675781 C 8.425781 23.78125 8.542969 23.929688 8.589844 24.003906 C 8.640625 24.078125 8.714844 24.175781 8.761719 24.21875 C 8.8125 24.261719 8.898438 24.367188 8.960938 24.453125 C 9.023438 24.539062 9.125 24.664062 9.183594 24.738281 C 9.246094 24.808594 9.367188 24.957031 9.453125 25.066406 C 9.539062 25.175781 9.683594 25.355469 9.78125 25.46875 C 9.875 25.582031 10.007812 25.742188 10.078125 25.828125 C 10.148438 25.914062 10.21875 25.996094 10.238281 26.015625 C 10.257812 26.03125 10.347656 26.144531 10.4375 26.265625 C 10.527344 26.382812 10.621094 26.5 10.644531 26.519531 C 10.664062 26.539062 10.773438 26.664062 10.882812 26.804688 C 11.0625 27.039062 11.292969 27.320312 11.738281 27.84375 C 12.097656 28.273438 12.496094 28.757812 12.75 29.082031 C 12.828125 29.179688 12.96875 29.351562 13.0625 29.464844 C 13.316406 29.769531 13.6875 30.226562 14.335938 31.042969 C 14.566406 31.328125 14.855469 31.667969 14.890625 31.695312 C 14.90625 31.707031 15.570312 31.71875 16.363281 31.71875 L 17.800781 31.71875 L 17.882812 31.632812 C 17.921875 31.585938 17.992188 31.496094 18.03125 31.4375 C 18.074219 31.378906 18.203125 31.21875 18.320312 31.085938 C 18.433594 30.953125 18.5625 30.792969 18.601562 30.726562 C 18.648438 30.664062 18.710938 30.582031 18.75 30.546875 C 18.789062 30.511719 18.863281 30.429688 18.914062 30.359375 C 18.960938 30.289062 19.085938 30.132812 19.1875 30.015625 C 19.289062 29.894531 19.457031 29.695312 19.554688 29.574219 C 19.652344 29.449219 19.882812 29.171875 20.0625 28.953125 C 20.242188 28.738281 20.433594 28.503906 20.484375 28.4375 C 20.539062 28.371094 20.632812 28.257812 20.695312 28.179688 C 20.757812 28.109375 20.863281 27.980469 20.929688 27.898438 C 20.992188 27.820312 21.152344 27.628906 21.28125 27.46875 C 21.410156 27.308594 21.566406 27.121094 21.628906 27.050781 C 21.691406 26.980469 21.847656 26.789062 21.980469 26.625 C 22.113281 26.460938 22.332031 26.195312 22.46875 26.03125 C 22.605469 25.867188 22.804688 25.628906 22.90625 25.5 C 23.007812 25.371094 23.125 25.230469 23.164062 25.1875 C 23.246094 25.101562 23.65625 24.59375 23.882812 24.304688 C 23.96875 24.195312 24.082031 24.054688 24.140625 23.984375 C 24.199219 23.914062 24.335938 23.746094 24.453125 23.609375 C 24.566406 23.472656 24.738281 23.265625 24.832031 23.148438 C 24.929688 23.035156 25.070312 22.855469 25.152344 22.757812 C 25.230469 22.652344 25.410156 22.433594 25.546875 22.265625 C 25.683594 22.101562 25.890625 21.84375 26.007812 21.695312 C 26.117188 21.554688 26.234375 21.414062 26.257812 21.398438 C 26.285156 21.375 26.347656 21.304688 26.394531 21.234375 C 26.445312 21.164062 26.703125 20.84375 26.96875 20.519531 C 27.234375 20.195312 27.523438 19.84375 27.601562 19.738281 C 27.773438 19.523438 28.003906 19.234375 28.453125 18.6875 C 28.625 18.476562 28.835938 18.21875 28.921875 18.109375 C 29.007812 18 29.21875 17.742188 29.390625 17.53125 C 30.007812 16.785156 30.113281 16.65625 30.328125 16.382812 C 30.449219 16.234375 30.574219 16.085938 30.609375 16.046875 C 30.644531 16.007812 30.75 15.882812 30.84375 15.761719 C 31.039062 15.515625 31.46875 14.992188 31.570312 14.875 C 31.609375 14.832031 31.683594 14.738281 31.742188 14.664062 L 31.84375 14.539062 L 31.769531 14.398438 C 31.726562 14.328125 31.664062 14.1875 31.625 14.09375 C 31.585938 14 31.53125 13.859375 31.5 13.78125 C 31.46875 13.703125 31.402344 13.542969 31.355469 13.421875 C 31.3125 13.304688 31.257812 13.164062 31.234375 13.109375 C 31.210938 13.058594 31.125 12.847656 31.046875 12.640625 C 30.964844 12.433594 30.820312 12.070312 30.71875 11.828125 C 30.617188 11.585938 30.492188 11.28125 30.445312 11.144531 L 30.355469 10.898438 L 30.445312 10.707031 C 30.496094 10.601562 30.601562 10.417969 30.675781 10.304688 C 30.75 10.1875 30.8125 10.085938 30.8125 10.078125 C 30.8125 10.070312 30.863281 9.988281 30.921875 9.890625 C 30.984375 9.796875 31.042969 9.695312 31.054688 9.664062 C 31.066406 9.632812 31.109375 9.554688 31.15625 9.484375 C 31.203125 9.414062 31.355469 9.164062 31.5 8.921875 C 31.644531 8.679688 31.785156 8.457031 31.8125 8.421875 C 31.839844 8.386719 31.898438 8.292969 31.929688 8.214844 C 32 8.074219 32 8.0625 32 5.808594 L 32 3.542969 L 31.632812 3.152344 C 31.429688 2.941406 31.148438 2.632812 31.003906 2.46875 C 30.855469 2.304688 30.722656 2.160156 30.699219 2.148438 C 30.679688 2.132812 30.578125 2.027344 30.480469 1.914062 C 30.382812 1.796875 30.113281 1.5 29.875 1.25 C 29.640625 1 29.28125 0.617188 29.078125 0.398438 L 28.707031 0 L 25.769531 0.015625 L 25.679688 0.140625 C 25.632812 0.210938 25.445312 0.492188 25.265625 0.765625 C 25.085938 1.039062 24.859375 1.390625 24.757812 1.542969 C 24.660156 1.695312 24.570312 1.84375 24.554688 1.871094 C 24.542969 1.898438 24.492188 1.976562 24.441406 2.046875 C 24.390625 2.117188 24.261719 2.304688 24.15625 2.46875 C 23.945312 2.792969 23.785156 3.046875 23.734375 3.117188 C 23.640625 3.257812 22.988281 4.265625 22.8125 4.539062 C 22.703125 4.710938 22.578125 4.894531 22.539062 4.941406 L 22.464844 5.027344 L 22.273438 4.929688 C 22.164062 4.878906 22.035156 4.804688 21.980469 4.765625 C 21.929688 4.726562 21.804688 4.648438 21.707031 4.597656 C 21.488281 4.476562 20.789062 4.070312 20.46875 3.882812 C 20.339844 3.804688 20.179688 3.710938 20.109375 3.671875 C 20.039062 3.632812 19.910156 3.558594 19.820312 3.503906 C 19.726562 3.449219 19.648438 3.40625 19.636719 3.40625 C 19.628906 3.40625 19.433594 3.296875 19.210938 3.164062 C 18.460938 2.714844 18.363281 2.660156 18.085938 2.523438 C 17.820312 2.382812 17.8125 2.382812 17.8125 2.453125 C 17.8125 2.492188 17.730469 2.671875 17.628906 2.851562 C 17.527344 3.027344 17.402344 3.257812 17.347656 3.359375 C 17.292969 3.460938 17.195312 3.644531 17.125 3.765625 C 17.058594 3.882812 16.945312 4.101562 16.867188 4.25 C 16.796875 4.398438 16.722656 4.539062 16.699219 4.5625 C 16.679688 4.585938 16.601562 4.726562 16.53125 4.867188 C 16.460938 5.007812 16.394531 5.125 16.382812 5.125 C 16.367188 5.125 16.320312 5.042969 16.265625 4.945312 C 16.214844 4.847656 16.136719 4.703125 16.089844 4.625 C 16.046875 4.546875 15.917969 4.316406 15.8125 4.109375 C 15.578125 3.664062 15.273438 3.09375 15.066406 2.703125 C 14.984375 2.550781 14.898438 2.417969 14.882812 2.414062 C 14.863281 2.40625 14.652344 2.511719 14.414062 2.648438 C 14.179688 2.785156 13.84375 2.972656 13.671875 3.0625 C 13.5 3.152344 13.304688 3.265625 13.234375 3.316406 C 13.164062 3.363281 12.945312 3.488281 12.75 3.59375 C 12.554688 3.699219 12.335938 3.828125 12.269531 3.878906 C 12.199219 3.929688 12.132812 3.96875 12.117188 3.96875 C 12.089844 3.96875 11.527344 4.289062 11.40625 4.375 C 11.363281 4.402344 11.292969 4.441406 11.25 4.453125 C 11.207031 4.464844 11.117188 4.515625 11.046875 4.5625 C 10.882812 4.675781 10.253906 5.03125 10.21875 5.03125 C 10.203125 5.03125 10.136719 4.945312 10.070312 4.839844 C 9.960938 4.664062 9.660156 4.203125 9.507812 3.980469 C 9.476562 3.929688 9.382812 3.789062 9.304688 3.671875 C 9.226562 3.550781 8.992188 3.183594 8.773438 2.859375 C 8.5625 2.53125 8.28125 2.101562 8.152344 1.90625 C 8.023438 1.710938 7.824219 1.398438 7.703125 1.214844 C 7.585938 1.03125 7.445312 0.8125 7.390625 0.730469 C 7.339844 0.648438 7.28125 0.558594 7.265625 0.535156 C 7.132812 0.324219 7.042969 0.1875 6.988281 0.101562 L 6.921875 0 L 3.980469 0 Z M 5.648438 0.632812 C 5.710938 0.722656 5.84375 0.921875 5.941406 1.078125 C 6.175781 1.460938 6.398438 1.816406 6.53125 2.015625 C 6.589844 2.105469 6.722656 2.304688 6.824219 2.457031 C 6.925781 2.609375 7.050781 2.792969 7.101562 2.867188 L 7.191406 3 L 7.117188 3 C 7.078125 3 6.753906 2.976562 6.390625 2.953125 C 5.429688 2.886719 5.496094 2.882812 5.335938 3.054688 C 5.257812 3.136719 5.140625 3.269531 5.074219 3.351562 C 5.007812 3.429688 4.777344 3.703125 4.5625 3.953125 C 4.347656 4.203125 4.101562 4.492188 4.019531 4.585938 C 3.933594 4.683594 3.785156 4.859375 3.679688 4.976562 C 3.578125 5.089844 3.460938 5.226562 3.425781 5.273438 C 3.390625 5.320312 3.320312 5.398438 3.273438 5.445312 C 3.171875 5.542969 3.175781 5.550781 3.386719 5.933594 C 3.464844 6.078125 3.53125 6.203125 3.53125 6.210938 C 3.53125 6.222656 3.632812 6.402344 3.753906 6.617188 C 3.871094 6.824219 3.992188 7.046875 4.019531 7.101562 C 4.042969 7.15625 4.101562 7.265625 4.152344 7.34375 C 4.199219 7.421875 4.324219 7.648438 4.429688 7.851562 C 4.539062 8.054688 4.675781 8.292969 4.734375 8.386719 C 4.792969 8.480469 4.84375 8.566406 4.84375 8.574219 C 4.84375 8.582031 4.9375 8.757812 5.054688 8.960938 C 5.4375 9.644531 5.5625 9.878906 5.5625 9.921875 C 5.5625 9.960938 5.21875 10.84375 5.113281 11.078125 C 5.089844 11.128906 5.023438 11.296875 4.96875 11.453125 C 4.914062 11.605469 4.84375 11.789062 4.8125 11.859375 C 4.75 12.003906 4.492188 12.65625 4.445312 12.796875 C 4.425781 12.847656 4.363281 13.003906 4.304688 13.140625 C 4.175781 13.441406 4.101562 13.617188 3.96875 13.960938 L 3.871094 14.21875 L 3.953125 14.320312 C 4 14.375 4.128906 14.515625 4.238281 14.632812 C 4.347656 14.746094 4.4375 14.855469 4.4375 14.871094 C 4.4375 14.890625 4.554688 15.039062 4.695312 15.195312 C 4.835938 15.359375 5.023438 15.582031 5.109375 15.6875 C 5.4375 16.089844 5.582031 16.265625 5.722656 16.417969 C 5.800781 16.507812 5.929688 16.664062 6.007812 16.765625 C 6.085938 16.867188 6.191406 16.996094 6.242188 17.046875 C 6.289062 17.101562 6.414062 17.242188 6.507812 17.367188 C 6.605469 17.488281 6.699219 17.601562 6.71875 17.609375 C 6.738281 17.621094 6.804688 17.703125 6.871094 17.789062 C 6.9375 17.882812 7.070312 18.039062 7.160156 18.144531 C 7.253906 18.25 7.4375 18.464844 7.570312 18.628906 C 7.703125 18.789062 7.960938 19.101562 8.148438 19.328125 C 8.332031 19.550781 8.53125 19.796875 8.589844 19.875 C 8.648438 19.953125 8.761719 20.085938 8.839844 20.175781 C 8.917969 20.261719 9.054688 20.421875 9.140625 20.527344 C 9.226562 20.632812 9.382812 20.824219 9.484375 20.953125 C 9.585938 21.078125 9.742188 21.269531 9.828125 21.378906 C 9.914062 21.484375 10.070312 21.675781 10.171875 21.792969 C 10.273438 21.914062 10.410156 22.078125 10.46875 22.15625 C 10.527344 22.234375 10.597656 22.320312 10.617188 22.34375 C 10.640625 22.367188 10.71875 22.464844 10.796875 22.554688 C 10.871094 22.644531 10.992188 22.789062 11.054688 22.882812 C 11.121094 22.972656 11.203125 23.070312 11.234375 23.09375 C 11.265625 23.117188 11.351562 23.226562 11.429688 23.328125 C 11.503906 23.429688 11.628906 23.585938 11.707031 23.671875 C 11.785156 23.757812 11.929688 23.933594 12.03125 24.0625 C 12.132812 24.191406 12.335938 24.441406 12.476562 24.617188 C 12.75 24.957031 13.078125 25.367188 13.394531 25.773438 C 13.5 25.90625 13.726562 26.132812 13.890625 26.28125 C 14.058594 26.429688 14.285156 26.625 14.386719 26.722656 C 14.492188 26.816406 14.621094 26.929688 14.671875 26.964844 C 14.726562 27.007812 14.84375 27.105469 14.9375 27.1875 C 15.214844 27.433594 15.554688 27.726562 15.714844 27.859375 C 15.800781 27.929688 15.96875 28.070312 16.089844 28.179688 C 16.210938 28.289062 16.335938 28.375 16.355469 28.375 C 16.398438 28.375 16.578125 28.226562 17.386719 27.515625 C 17.914062 27.054688 18.359375 26.675781 18.625 26.460938 C 18.902344 26.238281 19.273438 25.863281 19.421875 25.648438 C 19.492188 25.554688 19.742188 25.230469 19.984375 24.9375 C 20.226562 24.640625 20.457031 24.355469 20.5 24.300781 C 20.542969 24.246094 20.679688 24.078125 20.804688 23.921875 C 20.929688 23.769531 21.132812 23.515625 21.257812 23.363281 C 21.382812 23.210938 21.570312 22.976562 21.679688 22.847656 C 21.789062 22.714844 21.898438 22.585938 21.914062 22.5625 C 22.007812 22.445312 22.585938 21.742188 22.746094 21.546875 C 22.851562 21.425781 22.976562 21.269531 23.039062 21.195312 C 23.300781 20.863281 23.566406 20.539062 23.667969 20.421875 C 23.726562 20.351562 23.859375 20.195312 23.960938 20.074219 C 24.367188 19.574219 24.78125 19.074219 24.851562 19 C 24.890625 18.957031 25 18.820312 25.089844 18.703125 C 25.183594 18.582031 25.289062 18.457031 25.324219 18.417969 C 25.363281 18.382812 25.460938 18.261719 25.546875 18.152344 C 25.632812 18.042969 25.726562 17.929688 25.753906 17.898438 C 25.785156 17.867188 25.925781 17.699219 26.066406 17.523438 C 26.207031 17.347656 26.351562 17.171875 26.386719 17.136719 C 26.425781 17.101562 26.59375 16.898438 26.765625 16.683594 C 26.9375 16.472656 27.148438 16.222656 27.234375 16.125 C 27.320312 16.03125 27.4375 15.886719 27.492188 15.808594 C 27.542969 15.730469 27.613281 15.648438 27.644531 15.621094 C 27.675781 15.597656 27.757812 15.492188 27.835938 15.394531 C 27.910156 15.289062 28.035156 15.136719 28.109375 15.050781 C 28.183594 14.960938 28.324219 14.789062 28.425781 14.671875 C 28.523438 14.550781 28.660156 14.394531 28.730469 14.320312 L 28.855469 14.1875 L 28.769531 14.007812 C 28.648438 13.769531 28.523438 13.464844 28.195312 12.65625 C 28.050781 12.289062 27.898438 11.914062 27.859375 11.828125 C 27.820312 11.742188 27.753906 11.566406 27.707031 11.433594 C 27.664062 11.304688 27.585938 11.105469 27.53125 10.996094 C 27.480469 10.886719 27.4375 10.777344 27.4375 10.757812 C 27.4375 10.722656 27.324219 10.429688 27.25 10.265625 C 27.234375 10.230469 27.195312 10.132812 27.167969 10.050781 L 27.117188 9.898438 L 27.234375 9.722656 C 27.296875 9.625 27.382812 9.476562 27.425781 9.390625 C 27.519531 9.199219 27.636719 8.988281 27.878906 8.574219 C 27.976562 8.402344 28.0625 8.25 28.0625 8.238281 C 28.0625 8.226562 28.148438 8.066406 28.257812 7.882812 C 28.367188 7.695312 28.507812 7.441406 28.574219 7.3125 C 28.640625 7.183594 28.710938 7.054688 28.734375 7.03125 C 28.757812 7.007812 28.839844 6.855469 28.921875 6.703125 C 29.144531 6.277344 29.152344 6.261719 29.265625 6.078125 C 29.320312 5.984375 29.398438 5.832031 29.4375 5.738281 L 29.507812 5.570312 L 29.351562 5.378906 C 29.207031 5.195312 28.882812 4.816406 28.742188 4.65625 C 28.699219 4.613281 28.554688 4.445312 28.421875 4.289062 C 28.285156 4.128906 28.078125 3.886719 27.960938 3.757812 C 27.847656 3.625 27.683594 3.429688 27.601562 3.332031 C 27.519531 3.226562 27.402344 3.089844 27.34375 3.023438 L 27.230469 2.898438 L 26.382812 2.945312 C 25.914062 2.964844 25.53125 2.976562 25.53125 2.972656 C 25.53125 2.957031 25.601562 2.847656 25.730469 2.65625 C 25.960938 2.316406 26.246094 1.878906 26.273438 1.820312 C 26.296875 1.785156 26.332031 1.738281 26.351562 1.710938 C 26.375 1.691406 26.441406 1.59375 26.496094 1.5 C 26.753906 1.089844 27.164062 0.46875 27.183594 0.46875 C 27.214844 0.46875 28.289062 1.585938 28.5 1.832031 C 28.570312 1.914062 29.160156 2.554688 29.683594 3.113281 C 29.796875 3.230469 30.007812 3.460938 30.15625 3.625 C 30.304688 3.789062 30.507812 4.007812 30.609375 4.117188 C 30.972656 4.492188 31.53125 5.125 31.53125 5.15625 C 31.53125 5.21875 31.417969 5.429688 31.191406 5.808594 C 31.050781 6.039062 30.9375 6.230469 30.9375 6.238281 C 30.9375 6.242188 30.878906 6.347656 30.804688 6.460938 C 30.738281 6.578125 30.625 6.761719 30.5625 6.875 C 30.5 6.988281 30.355469 7.226562 30.242188 7.40625 C 30.132812 7.585938 30.035156 7.757812 30.023438 7.785156 C 30.011719 7.8125 29.910156 7.988281 29.792969 8.175781 C 29.679688 8.363281 29.519531 8.632812 29.4375 8.78125 C 29.246094 9.125 28.921875 9.671875 28.726562 9.972656 L 28.570312 10.210938 L 28.707031 10.566406 C 28.785156 10.761719 28.867188 10.960938 28.890625 11.015625 C 28.953125 11.152344 29.21875 11.804688 29.21875 11.828125 C 29.21875 11.835938 29.265625 11.953125 29.324219 12.085938 C 29.382812 12.21875 29.476562 12.433594 29.523438 12.5625 C 29.578125 12.691406 29.679688 12.9375 29.75 13.109375 C 30.085938 13.90625 30.242188 14.34375 30.199219 14.367188 C 30.179688 14.382812 30.054688 14.53125 29.929688 14.703125 C 29.804688 14.875 29.675781 15.035156 29.644531 15.058594 C 29.613281 15.085938 29.542969 15.167969 29.492188 15.246094 C 29.441406 15.324219 29.316406 15.480469 29.21875 15.59375 C 29.121094 15.707031 29.007812 15.847656 28.96875 15.90625 C 28.929688 15.964844 28.835938 16.078125 28.765625 16.15625 C 28.695312 16.234375 28.53125 16.429688 28.40625 16.59375 C 28.277344 16.757812 28.144531 16.925781 28.101562 16.96875 C 28.066406 17.011719 27.960938 17.140625 27.867188 17.257812 C 27.777344 17.367188 27.640625 17.542969 27.5625 17.640625 C 27.484375 17.738281 27.335938 17.921875 27.234375 18.046875 C 27.132812 18.171875 26.957031 18.390625 26.84375 18.53125 C 26.65625 18.765625 25.890625 19.707031 25.328125 20.390625 C 25.203125 20.542969 25.039062 20.746094 24.960938 20.835938 C 24.886719 20.929688 24.742188 21.105469 24.640625 21.234375 C 24.421875 21.5 23.765625 22.308594 23.46875 22.675781 C 23.15625 23.058594 22.945312 23.316406 22.820312 23.464844 C 22.757812 23.539062 22.648438 23.679688 22.578125 23.765625 C 22.507812 23.855469 22.335938 24.070312 22.195312 24.238281 C 22.050781 24.40625 21.824219 24.679688 21.695312 24.835938 C 21.5625 25 21.363281 25.238281 21.246094 25.367188 C 21.132812 25.503906 21 25.671875 20.945312 25.75 C 20.890625 25.828125 20.78125 25.953125 20.703125 26.03125 C 20.625 26.109375 20.5625 26.179688 20.5625 26.195312 C 20.5625 26.207031 20.460938 26.335938 20.335938 26.476562 C 20.210938 26.621094 20.03125 26.835938 19.9375 26.957031 C 19.84375 27.070312 19.710938 27.230469 19.640625 27.3125 C 19.460938 27.515625 19.089844 27.960938 18.980469 28.109375 C 18.929688 28.179688 18.835938 28.289062 18.773438 28.359375 C 18.664062 28.480469 18.5625 28.605469 18.066406 29.238281 C 17.929688 29.410156 17.792969 29.570312 17.765625 29.59375 C 17.738281 29.617188 17.667969 29.699219 17.617188 29.777344 C 17.5625 29.855469 17.4375 30.007812 17.335938 30.117188 L 17.15625 30.316406 L 16.335938 30.3125 C 15.886719 30.3125 15.507812 30.296875 15.5 30.285156 C 15.492188 30.269531 15.402344 30.160156 15.304688 30.039062 C 15.097656 29.792969 14.761719 29.382812 14.5625 29.132812 C 14.335938 28.84375 13.792969 28.1875 13.632812 28 C 13.550781 27.90625 13.445312 27.777344 13.40625 27.71875 C 13.367188 27.660156 13.28125 27.554688 13.214844 27.484375 C 13.148438 27.414062 13.03125 27.273438 12.945312 27.164062 C 12.765625 26.933594 12.519531 26.632812 12.265625 26.335938 C 11.761719 25.742188 11.613281 25.558594 11.453125 25.351562 C 11.359375 25.226562 11.234375 25.082031 11.179688 25.023438 C 11.121094 24.96875 11.035156 24.867188 10.984375 24.796875 C 10.859375 24.628906 10.183594 23.804688 10.136719 23.765625 C 10.117188 23.746094 10.023438 23.628906 9.929688 23.5 C 9.835938 23.371094 9.71875 23.230469 9.671875 23.1875 C 9.625 23.144531 9.539062 23.039062 9.476562 22.953125 C 9.414062 22.867188 9.320312 22.746094 9.265625 22.6875 C 9.210938 22.628906 9.113281 22.507812 9.046875 22.421875 C 8.980469 22.335938 8.867188 22.195312 8.789062 22.109375 C 8.714844 22.023438 8.585938 21.863281 8.496094 21.75 C 8.3125 21.507812 8.160156 21.320312 8.089844 21.253906 C 8.0625 21.226562 7.996094 21.140625 7.945312 21.0625 C 7.890625 20.984375 7.804688 20.871094 7.742188 20.8125 C 7.6875 20.753906 7.550781 20.585938 7.4375 20.445312 C 7.324219 20.304688 7.148438 20.089844 7.046875 19.964844 C 6.835938 19.710938 6.5625 19.375 6.421875 19.199219 C 6.371094 19.132812 6.265625 19.007812 6.1875 18.917969 C 6.109375 18.832031 5.976562 18.664062 5.890625 18.550781 C 5.804688 18.433594 5.695312 18.296875 5.640625 18.242188 C 5.589844 18.179688 5.449219 18.011719 5.328125 17.863281 C 5.210938 17.710938 5.015625 17.472656 4.898438 17.335938 C 4.78125 17.195312 4.605469 16.976562 4.507812 16.847656 C 4.410156 16.722656 4.292969 16.578125 4.25 16.53125 C 4.207031 16.484375 4.105469 16.363281 4.03125 16.261719 C 3.953125 16.164062 3.796875 15.96875 3.679688 15.835938 C 3.5625 15.703125 3.46875 15.582031 3.46875 15.570312 C 3.46875 15.554688 3.4375 15.507812 3.398438 15.46875 C 3.226562 15.273438 3 15 2.882812 14.84375 C 2.816406 14.75 2.707031 14.617188 2.644531 14.546875 C 2.46875 14.355469 2.46875 14.351562 2.546875 14.109375 C 2.648438 13.800781 2.710938 13.628906 2.777344 13.484375 C 2.894531 13.230469 2.933594 13.136719 2.988281 13 C 3.015625 12.921875 3.054688 12.847656 3.070312 12.828125 C 3.082031 12.8125 3.09375 12.78125 3.09375 12.757812 C 3.09375 12.730469 3.152344 12.585938 3.222656 12.425781 C 3.367188 12.109375 3.476562 11.835938 3.554688 11.625 C 3.578125 11.550781 3.652344 11.375 3.71875 11.234375 C 3.886719 10.875 3.9375 10.757812 3.9375 10.730469 C 3.9375 10.71875 3.980469 10.613281 4.035156 10.496094 L 4.132812 10.289062 L 4.039062 10.117188 C 3.988281 10.027344 3.851562 9.789062 3.734375 9.59375 C 3.617188 9.398438 3.492188 9.179688 3.457031 9.109375 C 3.417969 9.039062 3.292969 8.828125 3.179688 8.640625 C 3.070312 8.449219 2.851562 8.085938 2.703125 7.828125 C 2.554688 7.570312 2.371094 7.261719 2.300781 7.148438 C 2.230469 7.03125 2.109375 6.820312 2.03125 6.679688 C 1.953125 6.539062 1.820312 6.320312 1.742188 6.191406 C 1.65625 6.0625 1.582031 5.9375 1.570312 5.910156 C 1.550781 5.851562 1.304688 5.4375 1.195312 5.273438 L 1.117188 5.15625 L 1.265625 4.992188 C 1.726562 4.480469 2.039062 4.140625 2.601562 3.546875 C 2.730469 3.410156 2.894531 3.230469 2.960938 3.148438 C 3.035156 3.066406 3.128906 2.96875 3.171875 2.929688 C 3.214844 2.890625 3.324219 2.773438 3.414062 2.664062 C 3.890625 2.101562 5.445312 0.472656 5.507812 0.46875 C 5.515625 0.46875 5.578125 0.542969 5.648438 0.632812 Z M 14.34375 4.210938 C 14.34375 4.226562 14.394531 4.320312 14.457031 4.425781 C 14.519531 4.523438 14.625 4.714844 14.695312 4.84375 C 14.761719 4.972656 14.847656 5.113281 14.878906 5.152344 C 14.914062 5.195312 14.9375 5.238281 14.9375 5.25 C 14.9375 5.320312 16.335938 7.652344 16.378906 7.65625 C 16.386719 7.65625 16.425781 7.589844 16.464844 7.511719 C 16.503906 7.429688 16.59375 7.273438 16.667969 7.160156 C 16.742188 7.046875 16.859375 6.851562 16.929688 6.734375 C 16.996094 6.613281 17.128906 6.398438 17.21875 6.25 C 17.308594 6.101562 17.445312 5.871094 17.523438 5.738281 C 17.59375 5.601562 17.675781 5.46875 17.695312 5.441406 C 17.71875 5.414062 17.835938 5.214844 17.953125 5 C 18.070312 4.785156 18.199219 4.566406 18.238281 4.515625 C 18.273438 4.460938 18.316406 4.394531 18.324219 4.359375 C 18.335938 4.324219 18.367188 4.273438 18.390625 4.238281 C 18.429688 4.179688 18.449219 4.191406 18.789062 4.394531 C 18.980469 4.507812 19.253906 4.679688 19.390625 4.765625 C 19.527344 4.855469 19.71875 4.96875 19.8125 5.023438 C 19.90625 5.074219 20.070312 5.175781 20.175781 5.242188 C 20.28125 5.316406 20.464844 5.425781 20.582031 5.488281 C 20.699219 5.554688 20.847656 5.644531 20.90625 5.691406 C 20.964844 5.734375 21.117188 5.828125 21.234375 5.894531 C 21.355469 5.960938 21.585938 6.101562 21.753906 6.207031 C 21.914062 6.3125 22.113281 6.429688 22.191406 6.46875 C 22.265625 6.507812 22.335938 6.542969 22.335938 6.550781 C 22.351562 6.558594 22.253906 6.742188 22.195312 6.8125 C 22.09375 6.945312 21.941406 7.257812 21.960938 7.296875 C 21.996094 7.363281 22.285156 7.65625 22.308594 7.65625 C 22.320312 7.65625 22.351562 7.691406 22.367188 7.730469 C 22.386719 7.773438 22.511719 7.929688 22.648438 8.085938 C 22.785156 8.234375 22.925781 8.398438 22.960938 8.445312 C 22.996094 8.496094 23.132812 8.648438 23.261719 8.789062 C 23.390625 8.929688 23.539062 9.105469 23.601562 9.175781 C 23.761719 9.378906 24.121094 9.773438 24.335938 9.980469 L 24.527344 10.175781 L 24.652344 9.78125 C 24.71875 9.566406 24.785156 9.355469 24.796875 9.3125 C 24.808594 9.269531 24.847656 9.175781 24.878906 9.101562 C 24.914062 9.03125 24.988281 8.851562 25.046875 8.699219 C 25.109375 8.550781 25.21875 8.285156 25.292969 8.113281 C 25.367188 7.9375 25.46875 7.703125 25.515625 7.585938 L 25.601562 7.378906 L 25.386719 7.179688 C 24.867188 6.707031 24.546875 6.386719 24.550781 6.355469 C 24.554688 6.324219 24.8125 5.980469 25.070312 5.660156 C 25.132812 5.582031 25.273438 5.402344 25.371094 5.265625 C 25.476562 5.128906 25.628906 4.929688 25.714844 4.828125 C 25.804688 4.726562 25.898438 4.609375 25.929688 4.570312 C 25.980469 4.507812 26.046875 4.480469 26.589844 4.34375 C 26.648438 4.328125 26.710938 4.324219 26.730469 4.332031 C 26.75 4.339844 26.851562 4.460938 26.960938 4.601562 C 27.0625 4.742188 27.21875 4.9375 27.304688 5.035156 C 27.464844 5.226562 27.6875 5.503906 27.820312 5.679688 L 27.898438 5.796875 L 27.828125 5.921875 C 27.726562 6.105469 27.414062 6.648438 27.296875 6.84375 C 27.242188 6.9375 27.132812 7.128906 27.0625 7.265625 C 26.988281 7.402344 26.863281 7.621094 26.785156 7.75 C 26.710938 7.878906 26.585938 8.101562 26.507812 8.246094 C 26.429688 8.390625 26.277344 8.660156 26.167969 8.847656 C 26.054688 9.039062 25.945312 9.246094 25.921875 9.316406 C 25.898438 9.386719 25.804688 9.574219 25.722656 9.738281 L 25.570312 10.027344 L 25.652344 10.148438 C 25.75 10.289062 25.882812 10.570312 26.0625 11.046875 C 26.132812 11.234375 26.242188 11.507812 26.304688 11.652344 C 26.367188 11.796875 26.457031 12.027344 26.507812 12.167969 C 26.554688 12.304688 26.617188 12.460938 26.636719 12.515625 C 26.664062 12.566406 26.71875 12.699219 26.765625 12.8125 C 26.808594 12.925781 26.867188 13.058594 26.894531 13.117188 C 26.917969 13.167969 26.9375 13.226562 26.9375 13.242188 C 26.9375 13.257812 27 13.425781 27.078125 13.609375 C 27.15625 13.796875 27.214844 13.964844 27.207031 13.988281 C 27.1875 14.039062 26.933594 14.367188 26.71875 14.628906 C 26.625 14.742188 26.46875 14.929688 26.375 15.046875 C 26.28125 15.164062 26.125 15.351562 26.03125 15.472656 C 25.9375 15.585938 25.753906 15.8125 25.625 15.972656 C 25.496094 16.128906 25.335938 16.324219 25.261719 16.40625 C 25.195312 16.488281 25.09375 16.605469 25.042969 16.675781 C 24.992188 16.742188 24.863281 16.90625 24.75 17.039062 C 24.636719 17.171875 24.515625 17.320312 24.476562 17.367188 C 24.4375 17.414062 24.226562 17.667969 24.007812 17.929688 C 23.789062 18.195312 23.535156 18.503906 23.445312 18.617188 C 23.351562 18.734375 23.210938 18.90625 23.125 19 C 23.039062 19.09375 22.929688 19.222656 22.882812 19.289062 C 22.734375 19.484375 22.410156 19.882812 22.28125 20.03125 C 22.210938 20.109375 21.976562 20.398438 21.75 20.671875 C 21.523438 20.945312 21.257812 21.269531 21.15625 21.390625 C 20.964844 21.621094 20.765625 21.867188 20.453125 22.246094 C 20.351562 22.371094 20.164062 22.597656 20.039062 22.746094 C 19.914062 22.894531 19.730469 23.121094 19.628906 23.25 C 19.527344 23.378906 19.40625 23.523438 19.363281 23.578125 C 19.316406 23.628906 19.195312 23.777344 19.089844 23.90625 C 18.398438 24.761719 18.121094 25.078125 17.875 25.269531 C 17.796875 25.332031 17.679688 25.429688 17.609375 25.496094 C 17.539062 25.558594 17.386719 25.703125 17.265625 25.808594 C 17.148438 25.917969 16.96875 26.082031 16.875 26.167969 C 16.78125 26.257812 16.625 26.394531 16.527344 26.476562 L 16.355469 26.617188 L 16.152344 26.445312 C 16.042969 26.347656 15.789062 26.117188 15.589844 25.9375 C 15.390625 25.757812 15.085938 25.492188 14.921875 25.34375 C 14.753906 25.195312 14.582031 25.039062 14.535156 24.996094 C 14.445312 24.910156 14.023438 24.394531 13.921875 24.25 C 13.867188 24.171875 13.476562 23.695312 13.316406 23.515625 C 13.257812 23.449219 12.746094 22.820312 12.476562 22.476562 C 12.382812 22.359375 12.246094 22.203125 12.175781 22.125 C 12.101562 22.046875 12.023438 21.949219 11.992188 21.90625 C 11.96875 21.863281 11.863281 21.734375 11.761719 21.621094 C 11.660156 21.507812 11.414062 21.210938 11.21875 20.96875 C 11.023438 20.726562 10.796875 20.457031 10.722656 20.371094 C 10.648438 20.289062 10.515625 20.128906 10.425781 20.019531 C 10.335938 19.90625 10.121094 19.644531 9.945312 19.429688 C 9.773438 19.21875 9.59375 19.007812 9.554688 18.960938 C 9.515625 18.914062 9.386719 18.757812 9.265625 18.613281 C 9.148438 18.464844 8.941406 18.21875 8.8125 18.0625 C 8.683594 17.902344 8.492188 17.675781 8.390625 17.554688 C 8.289062 17.429688 8.105469 17.210938 7.984375 17.058594 C 7.867188 16.914062 7.625 16.625 7.453125 16.421875 C 7.28125 16.21875 7.0625 15.957031 6.96875 15.839844 C 6.875 15.722656 6.65625 15.457031 6.484375 15.246094 C 5.867188 14.503906 5.773438 14.386719 5.640625 14.207031 C 5.5625 14.105469 5.5 14 5.5 13.972656 C 5.5 13.945312 5.527344 13.84375 5.566406 13.75 C 5.601562 13.65625 5.648438 13.527344 5.671875 13.464844 C 5.695312 13.402344 5.761719 13.234375 5.820312 13.089844 C 5.882812 12.945312 5.96875 12.722656 6.015625 12.59375 C 6.0625 12.464844 6.117188 12.316406 6.144531 12.265625 C 6.226562 12.078125 6.289062 11.917969 6.351562 11.734375 C 6.382812 11.632812 6.421875 11.53125 6.433594 11.515625 C 6.449219 11.496094 6.46875 11.457031 6.476562 11.421875 C 6.550781 11.164062 6.847656 10.445312 6.976562 10.226562 L 7.070312 10.054688 L 7.007812 9.847656 C 6.96875 9.730469 6.867188 9.503906 6.789062 9.339844 C 6.503906 8.789062 6.304688 8.421875 6.203125 8.265625 C 6.148438 8.179688 6.015625 7.941406 5.90625 7.734375 C 5.796875 7.527344 5.683594 7.332031 5.652344 7.296875 C 5.625 7.261719 5.539062 7.117188 5.464844 6.96875 C 5.394531 6.820312 5.300781 6.648438 5.261719 6.585938 C 5.222656 6.523438 5.101562 6.308594 5 6.113281 L 4.808594 5.753906 L 5.085938 5.429688 C 5.242188 5.253906 5.429688 5.03125 5.503906 4.933594 C 6.035156 4.257812 6.007812 4.285156 6.109375 4.304688 C 6.160156 4.3125 6.222656 4.332031 6.25 4.347656 C 6.367188 4.414062 6.691406 4.53125 6.75 4.53125 C 6.792969 4.53125 6.855469 4.597656 6.953125 4.742188 C 7.027344 4.859375 7.148438 5.023438 7.214844 5.109375 C 7.285156 5.195312 7.378906 5.316406 7.417969 5.382812 C 7.460938 5.445312 7.601562 5.617188 7.726562 5.773438 C 7.941406 6.023438 8.125 6.304688 8.125 6.371094 C 8.125 6.421875 7.570312 6.972656 7.164062 7.320312 L 7.066406 7.402344 L 7.230469 7.773438 C 7.320312 7.976562 7.410156 8.179688 7.421875 8.21875 C 7.445312 8.285156 7.511719 8.445312 7.761719 9.015625 C 7.8125 9.125 7.976562 9.621094 8.050781 9.882812 C 8.078125 9.980469 8.121094 10.085938 8.144531 10.117188 C 8.179688 10.164062 8.195312 10.15625 8.335938 10.003906 C 8.414062 9.914062 8.589844 9.722656 8.71875 9.578125 C 9.117188 9.144531 9.335938 8.894531 9.410156 8.796875 C 9.445312 8.742188 9.566406 8.609375 9.667969 8.496094 C 9.773438 8.382812 9.988281 8.148438 10.140625 7.96875 C 10.296875 7.789062 10.503906 7.554688 10.601562 7.445312 C 10.710938 7.320312 10.773438 7.226562 10.757812 7.207031 C 10.742188 7.1875 10.648438 7.039062 10.539062 6.882812 C 10.316406 6.554688 10.316406 6.550781 10.539062 6.4375 C 10.695312 6.359375 10.765625 6.320312 10.890625 6.230469 C 10.945312 6.195312 11.097656 6.101562 11.234375 6.023438 C 11.5 5.875 12.234375 5.433594 12.46875 5.285156 C 12.546875 5.234375 12.75 5.109375 12.921875 5.007812 C 13.367188 4.742188 13.929688 4.402344 14.105469 4.289062 C 14.257812 4.191406 14.34375 4.164062 14.34375 4.210938 Z M 14.34375 4.210938 "/>
        <path class="cls-1" style="stroke:none;fill-rule:nonzero;fill-opacity:1;"
              d="M 13.703125 6.269531 C 13.316406 6.628906 12.382812 7.277344 12.152344 7.347656 C 12.085938 7.367188 12.035156 7.398438 12.039062 7.417969 C 12.050781 7.4375 12.144531 7.578125 12.253906 7.726562 C 12.363281 7.878906 12.507812 8.089844 12.578125 8.195312 C 12.648438 8.304688 12.761719 8.476562 12.835938 8.578125 C 13.027344 8.839844 13.429688 9.398438 13.578125 9.613281 C 13.648438 9.710938 13.746094 9.847656 13.804688 9.917969 C 13.855469 9.992188 13.992188 10.179688 14.101562 10.34375 C 14.214844 10.507812 14.34375 10.675781 14.382812 10.714844 L 14.464844 10.789062 L 14.613281 10.558594 C 14.691406 10.429688 14.820312 10.238281 14.890625 10.125 C 14.960938 10.011719 15.066406 9.851562 15.117188 9.765625 C 15.171875 9.679688 15.257812 9.546875 15.3125 9.46875 C 15.484375 9.21875 15.75 8.796875 15.75 8.773438 C 15.75 8.761719 15.695312 8.671875 15.632812 8.574219 C 15.570312 8.476562 15.476562 8.332031 15.421875 8.25 C 15.371094 8.164062 15.261719 8.003906 15.183594 7.882812 C 15.105469 7.769531 14.933594 7.507812 14.804688 7.3125 C 14.679688 7.117188 14.53125 6.890625 14.480469 6.816406 C 14.429688 6.742188 14.378906 6.65625 14.359375 6.628906 C 14.265625 6.472656 13.960938 6.0625 13.945312 6.0625 C 13.929688 6.066406 13.824219 6.15625 13.703125 6.269531 Z M 13.703125 6.269531 "/>
        <path class="cls-1" style="stroke:none;fill-rule:nonzero;fill-opacity:1;"
              d="M 18.625 6.257812 C 18.570312 6.347656 18.496094 6.460938 18.464844 6.507812 C 18.226562 6.855469 17.972656 7.242188 17.511719 7.960938 C 17.414062 8.125 17.28125 8.320312 17.226562 8.398438 C 17.167969 8.476562 17.09375 8.589844 17.058594 8.65625 C 16.988281 8.792969 16.988281 8.792969 17.285156 9.234375 C 17.480469 9.523438 17.71875 9.902344 17.71875 9.925781 C 17.71875 9.933594 17.757812 9.992188 17.808594 10.054688 C 17.859375 10.117188 17.925781 10.222656 17.960938 10.28125 C 17.992188 10.339844 18.054688 10.441406 18.101562 10.5 C 18.148438 10.558594 18.195312 10.648438 18.214844 10.695312 C 18.265625 10.820312 18.324219 10.800781 18.433594 10.617188 C 18.488281 10.527344 18.59375 10.367188 18.671875 10.265625 C 18.75 10.164062 18.882812 9.972656 18.972656 9.84375 C 19.058594 9.714844 19.164062 9.574219 19.203125 9.53125 C 19.242188 9.488281 19.320312 9.382812 19.378906 9.292969 C 19.601562 8.957031 19.671875 8.855469 19.785156 8.71875 C 19.84375 8.640625 19.984375 8.445312 20.09375 8.28125 C 20.199219 8.117188 20.316406 7.949219 20.351562 7.90625 C 20.464844 7.757812 20.65625 7.453125 20.65625 7.417969 C 20.65625 7.402344 20.589844 7.355469 20.507812 7.316406 C 20.175781 7.152344 19.335938 6.570312 18.976562 6.242188 C 18.882812 6.164062 18.789062 6.09375 18.765625 6.09375 C 18.742188 6.09375 18.679688 6.167969 18.625 6.257812 Z M 18.625 6.257812 "/>
        <path class="cls-3" style="stroke:none;fill-rule:nonzero;fill-opacity:1;"
              d="M 11.527344 9.101562 C 11.449219 9.210938 11.324219 9.378906 11.246094 9.480469 C 11.171875 9.582031 11.046875 9.753906 10.96875 9.859375 C 10.890625 9.96875 10.660156 10.277344 10.453125 10.546875 C 10.246094 10.816406 10 11.148438 9.90625 11.285156 C 9.8125 11.417969 9.71875 11.53125 9.695312 11.53125 C 9.65625 11.53125 8.972656 11.296875 8.828125 11.234375 C 8.632812 11.148438 8.460938 11.117188 8.433594 11.164062 C 8.417969 11.183594 8.40625 11.21875 8.40625 11.238281 C 8.40625 11.253906 8.367188 11.359375 8.324219 11.472656 C 8.28125 11.582031 8.21875 11.734375 8.1875 11.8125 C 8.15625 11.890625 8.078125 12.085938 8.015625 12.25 C 7.953125 12.414062 7.882812 12.585938 7.863281 12.640625 C 7.835938 12.691406 7.726562 12.972656 7.613281 13.265625 C 7.496094 13.554688 7.347656 13.902344 7.28125 14.035156 L 7.160156 14.273438 L 7.339844 14.476562 C 7.441406 14.585938 7.554688 14.726562 7.59375 14.785156 C 7.632812 14.84375 7.710938 14.933594 7.761719 14.988281 C 7.816406 15.042969 7.910156 15.15625 7.964844 15.238281 C 8.023438 15.320312 8.097656 15.414062 8.125 15.4375 C 8.222656 15.527344 8.5 15.867188 8.5 15.894531 C 8.5 15.910156 8.578125 16.007812 8.679688 16.105469 C 8.773438 16.210938 8.886719 16.34375 8.929688 16.402344 C 8.96875 16.460938 9.070312 16.585938 9.148438 16.675781 C 9.230469 16.761719 9.367188 16.925781 9.453125 17.035156 C 9.539062 17.144531 9.695312 17.339844 9.804688 17.46875 C 9.910156 17.597656 10.117188 17.851562 10.265625 18.03125 C 10.613281 18.453125 10.964844 18.882812 11.203125 19.164062 C 11.304688 19.289062 11.441406 19.453125 11.5 19.53125 C 11.554688 19.609375 11.648438 19.722656 11.710938 19.78125 C 11.765625 19.84375 11.878906 19.976562 11.960938 20.085938 C 12.207031 20.398438 12.769531 21.097656 12.886719 21.230469 C 12.917969 21.265625 12.992188 21.367188 13.046875 21.453125 C 13.101562 21.539062 13.210938 21.664062 13.28125 21.734375 C 13.351562 21.804688 13.429688 21.898438 13.457031 21.945312 C 13.480469 21.992188 13.570312 22.109375 13.648438 22.199219 C 13.730469 22.289062 13.851562 22.4375 13.921875 22.527344 C 14.160156 22.839844 14.203125 22.890625 14.320312 23.007812 L 14.441406 23.125 L 18.332031 23.125 L 18.410156 23.039062 C 18.453125 22.992188 18.554688 22.867188 18.628906 22.765625 C 18.707031 22.664062 18.800781 22.542969 18.835938 22.5 C 18.945312 22.382812 19.820312 21.285156 19.871094 21.207031 C 19.898438 21.171875 19.980469 21.066406 20.058594 20.976562 C 20.140625 20.882812 20.238281 20.757812 20.28125 20.703125 C 20.324219 20.648438 20.445312 20.492188 20.554688 20.355469 C 20.664062 20.222656 20.789062 20.0625 20.835938 20.003906 C 20.882812 19.945312 21.007812 19.792969 21.109375 19.675781 C 21.214844 19.554688 21.339844 19.398438 21.390625 19.328125 C 21.441406 19.257812 21.570312 19.101562 21.671875 18.980469 C 21.867188 18.753906 22.035156 18.550781 22.609375 17.84375 C 22.796875 17.609375 22.972656 17.398438 22.992188 17.375 C 23.011719 17.351562 23.128906 17.214844 23.242188 17.074219 C 23.363281 16.9375 23.5 16.757812 23.554688 16.683594 C 23.605469 16.609375 23.679688 16.519531 23.71875 16.484375 C 23.757812 16.449219 23.875 16.308594 23.980469 16.171875 C 24.085938 16.035156 24.234375 15.851562 24.3125 15.757812 C 24.390625 15.671875 24.515625 15.519531 24.59375 15.421875 C 24.671875 15.324219 24.789062 15.179688 24.863281 15.101562 C 24.929688 15.019531 25.035156 14.890625 25.09375 14.8125 C 25.152344 14.734375 25.269531 14.601562 25.351562 14.507812 C 25.429688 14.421875 25.5 14.324219 25.5 14.300781 C 25.5 14.273438 25.429688 14.089844 25.339844 13.898438 C 25.253906 13.707031 25.128906 13.402344 25.058594 13.230469 C 24.992188 13.054688 24.898438 12.820312 24.847656 12.699219 C 24.753906 12.476562 24.644531 12.203125 24.511719 11.84375 C 24.414062 11.574219 24.242188 11.179688 24.21875 11.148438 C 24.207031 11.132812 24.039062 11.179688 23.839844 11.25 C 23.546875 11.355469 23.125 11.484375 22.988281 11.507812 C 22.953125 11.515625 21.648438 9.796875 21.226562 9.191406 C 21.136719 9.058594 21.042969 8.949219 21.023438 8.945312 C 21.003906 8.941406 20.890625 9.070312 20.773438 9.226562 C 20.195312 10.019531 20.066406 10.199219 19.90625 10.421875 C 19.746094 10.648438 19.601562 10.84375 19.25 11.320312 C 19.171875 11.421875 19.023438 11.625 18.921875 11.769531 C 18.820312 11.910156 18.613281 12.195312 18.460938 12.402344 L 18.1875 12.777344 L 18.1875 17.078125 L 18.398438 17.390625 C 18.75 17.921875 18.84375 18.058594 19.210938 18.605469 C 19.402344 18.898438 19.5625 19.148438 19.5625 19.171875 C 19.5625 19.214844 19.386719 19.476562 18.996094 20.015625 C 18.859375 20.203125 18.671875 20.476562 18.578125 20.617188 C 18.480469 20.757812 18.382812 20.898438 18.351562 20.929688 C 18.320312 20.960938 18.226562 21.085938 18.144531 21.203125 C 18.058594 21.324219 17.929688 21.503906 17.847656 21.601562 L 17.703125 21.78125 L 15.015625 21.78125 L 14.714844 21.382812 C 13.941406 20.351562 13.15625 19.238281 13.15625 19.164062 C 13.15625 19.144531 13.238281 19.003906 13.339844 18.851562 C 13.441406 18.699219 13.539062 18.542969 13.5625 18.5 C 13.585938 18.457031 13.648438 18.367188 13.707031 18.296875 C 13.8125 18.164062 14.179688 17.632812 14.40625 17.273438 L 14.546875 17.054688 L 14.554688 14.945312 L 14.566406 12.839844 L 14.492188 12.726562 C 14.457031 12.664062 14.386719 12.570312 14.339844 12.519531 C 14.296875 12.464844 14.179688 12.304688 14.078125 12.15625 C 13.976562 12.007812 13.886719 11.882812 13.875 11.875 C 13.839844 11.847656 13.476562 11.351562 13.433594 11.273438 C 13.414062 11.234375 13.351562 11.148438 13.292969 11.085938 C 13.238281 11.023438 13.128906 10.878906 13.046875 10.757812 C 12.96875 10.644531 12.859375 10.488281 12.804688 10.414062 C 12.644531 10.207031 12.492188 10.003906 12.359375 9.8125 C 12.289062 9.714844 12.171875 9.550781 12.09375 9.445312 C 12.015625 9.339844 11.898438 9.175781 11.832031 9.082031 C 11.761719 8.984375 11.699219 8.90625 11.691406 8.90625 C 11.679688 8.90625 11.605469 8.996094 11.527344 9.101562 Z M 11.9375 12.816406 C 12.050781 12.960938 12.234375 13.203125 12.351562 13.347656 C 12.792969 13.898438 12.976562 14.140625 13.035156 14.253906 C 13.089844 14.363281 13.09375 14.445312 13.09375 15.320312 C 13.09375 15.914062 13.082031 16.3125 13.058594 16.390625 C 13.039062 16.460938 12.957031 16.601562 12.867188 16.710938 C 12.785156 16.820312 12.679688 16.96875 12.632812 17.039062 C 12.460938 17.304688 12.304688 17.5 12.269531 17.5 C 12.246094 17.5 12.179688 17.433594 12.125 17.351562 C 12.066406 17.269531 11.960938 17.132812 11.882812 17.046875 C 11.75 16.886719 11.539062 16.632812 11.125 16.125 C 10.996094 15.96875 10.828125 15.765625 10.75 15.675781 C 10.671875 15.585938 10.476562 15.34375 10.3125 15.140625 C 10.148438 14.941406 9.917969 14.65625 9.796875 14.511719 C 9.679688 14.367188 9.523438 14.179688 9.453125 14.089844 C 9.382812 14.003906 9.261719 13.851562 9.179688 13.757812 C 9.101562 13.660156 9.03125 13.566406 9.03125 13.550781 C 9.03125 13.539062 9.097656 13.375 9.175781 13.191406 C 9.3125 12.878906 9.378906 12.710938 9.417969 12.585938 C 9.433594 12.535156 9.507812 12.53125 10.585938 12.539062 L 11.734375 12.546875 Z M 23.390625 12.882812 C 23.472656 13.074219 23.570312 13.304688 23.609375 13.394531 L 23.679688 13.550781 L 23.582031 13.664062 C 23.527344 13.726562 23.429688 13.851562 23.359375 13.941406 C 23.289062 14.03125 23.1875 14.152344 23.132812 14.214844 C 23.078125 14.277344 23.03125 14.335938 23.03125 14.351562 C 23.03125 14.363281 22.972656 14.441406 22.898438 14.523438 C 22.824219 14.609375 22.6875 14.773438 22.59375 14.890625 C 22.5 15.007812 22.34375 15.195312 22.25 15.308594 C 22.15625 15.421875 22.015625 15.601562 21.9375 15.699219 C 21.863281 15.800781 21.757812 15.925781 21.710938 15.976562 C 21.664062 16.027344 21.59375 16.117188 21.554688 16.167969 C 21.519531 16.222656 21.417969 16.34375 21.332031 16.4375 C 21.175781 16.605469 21.039062 16.773438 20.679688 17.238281 C 20.578125 17.367188 20.476562 17.46875 20.449219 17.46875 C 20.382812 17.46875 20.257812 17.308594 19.726562 16.515625 L 19.640625 16.390625 L 19.632812 15.351562 L 19.621094 14.316406 L 19.765625 14.148438 C 19.84375 14.058594 19.992188 13.871094 20.097656 13.734375 C 20.195312 13.597656 20.332031 13.421875 20.394531 13.34375 C 20.453125 13.265625 20.621094 13.054688 20.769531 12.867188 L 21.035156 12.53125 L 23.242188 12.53125 Z M 23.390625 12.882812 "/>
        <path class="cls-1" style="stroke:none;fill-rule:nonzero;fill-opacity:1;"
              d="M 16.15625 10.226562 C 16.0625 10.382812 15.929688 10.589844 15.859375 10.6875 C 15.789062 10.78125 15.679688 10.949219 15.609375 11.0625 C 15.542969 11.175781 15.398438 11.40625 15.289062 11.574219 L 15.085938 11.882812 L 15.207031 11.992188 C 15.414062 12.179688 16.003906 12.726562 16.164062 12.882812 C 16.25 12.964844 16.339844 13.03125 16.367188 13.03125 C 16.394531 13.03125 16.507812 12.945312 16.625 12.835938 C 16.738281 12.726562 17.007812 12.472656 17.226562 12.269531 C 17.445312 12.0625 17.625 11.871094 17.621094 11.847656 C 17.621094 11.820312 17.523438 11.65625 17.40625 11.484375 C 17.289062 11.3125 17.117188 11.054688 17.027344 10.90625 C 16.9375 10.757812 16.816406 10.578125 16.757812 10.503906 C 16.703125 10.429688 16.65625 10.351562 16.65625 10.335938 C 16.65625 10.320312 16.605469 10.242188 16.546875 10.152344 C 16.488281 10.066406 16.4375 9.980469 16.4375 9.964844 C 16.4375 9.949219 16.414062 9.9375 16.382812 9.9375 C 16.347656 9.9375 16.269531 10.039062 16.15625 10.226562 Z M 16.15625 10.226562 "/>
        <path class="cls-2" style="stroke:none;fill-rule:nonzero;fill-opacity:1;"
              d="M 15.25 18.09375 C 15.15625 18.25 15.035156 18.449219 14.980469 18.539062 C 14.929688 18.632812 14.816406 18.8125 14.726562 18.945312 L 14.5625 19.191406 L 14.640625 19.304688 C 14.683594 19.367188 14.738281 19.449219 14.761719 19.484375 C 14.789062 19.519531 14.878906 19.660156 14.960938 19.796875 C 15.050781 19.933594 15.210938 20.179688 15.320312 20.335938 L 15.515625 20.625 L 17.242188 20.625 L 17.410156 20.359375 C 17.625 20.015625 17.726562 19.859375 17.945312 19.539062 C 18.042969 19.398438 18.125 19.253906 18.125 19.222656 C 18.125 19.1875 18.074219 19.078125 18.011719 18.976562 C 17.882812 18.769531 17.507812 18.140625 17.390625 17.945312 L 17.3125 17.8125 L 15.417969 17.8125 Z M 15.25 18.09375 "/>
    </g>
</svg>
